<svg xmlns="http://www.w3.org/2000/svg" xmlns:xlink="http://www.w3.org/1999/xlink" width="500" zoomAndPan="magnify" viewBox="0 0 375 112.499997" height="150" preserveAspectRatio="xMidYMid meet" version="1.0"><defs><g/></defs><g fill="#5ce1e6" fill-opacity="1"><g transform="translate(5.458304, 79.896199)"><g><path d="M 4.003906 -43.605469 L 4.003906 0 L 13.796875 0 L 13.796875 -16.1875 L 25.089844 -16.1875 C 35.601562 -16.1875 40.738281 -21.265625 40.738281 -29.925781 C 40.738281 -38.527344 35.601562 -43.605469 25.089844 -43.605469 Z M 13.796875 -24.671875 L 13.796875 -35.125 L 24.910156 -35.125 C 28.972656 -35.125 30.882812 -33.273438 30.882812 -29.867188 C 30.882812 -26.460938 28.972656 -24.671875 24.910156 -24.671875 Z M 13.796875 -24.671875 "/></g></g></g><g fill="#5ce1e6" fill-opacity="1"><g transform="translate(47.451622, 79.896199)"><g><path d="M 18.457031 -32.4375 C 8.421875 -32.4375 3.761719 -27.65625 2.867188 -20.726562 L 12.484375 -20.726562 C 13.023438 -23.296875 14.636719 -24.910156 18.398438 -24.910156 C 22.042969 -24.910156 23.773438 -23.535156 24.253906 -20.128906 L 18.757812 -19.355469 C 7.226562 -17.679688 2.152344 -13.859375 2.152344 -7.40625 C 2.152344 -2.867188 5.855469 0.777344 12.363281 0.777344 C 19.355469 0.777344 24.429688 -2.746094 26.402344 -8.722656 L 29.089844 0 L 33.808594 0 L 33.808594 -17.261719 C 33.808594 -27.417969 28.730469 -32.4375 18.457031 -32.4375 Z M 15.589844 -6.628906 C 13.082031 -6.628906 11.886719 -7.824219 11.886719 -9.378906 C 11.886719 -11.707031 14.695312 -13.5 21.324219 -14.515625 L 24.550781 -14.933594 C 24.550781 -10.453125 20.667969 -6.628906 15.589844 -6.628906 Z M 15.589844 -6.628906 "/></g></g></g><g fill="#5ce1e6" fill-opacity="1"><g transform="translate(84.30778, 79.896199)"><g><path d="M 1.375 -10.632812 C 2.089844 -3.941406 6.511719 0.777344 18.097656 0.777344 C 28.910156 0.777344 33.75 -4.0625 33.75 -8.960938 C 33.75 -13.976562 30.585938 -17.503906 20.128906 -18.757812 C 12.246094 -19.710938 11.171875 -20.847656 11.171875 -22.460938 C 11.171875 -23.835938 12.542969 -25.328125 17.023438 -25.328125 C 21.683594 -25.328125 23.238281 -23.773438 23.65625 -21.144531 L 33.03125 -21.144531 C 32.375 -27.539062 27.777344 -32.4375 16.90625 -32.4375 C 6.691406 -32.4375 1.972656 -27.777344 1.972656 -22.699219 C 1.972656 -17.5625 5.078125 -14.335938 15.828125 -13.023438 C 23.414062 -12.066406 24.492188 -10.929688 24.492188 -9.320312 C 24.492188 -7.886719 22.996094 -6.390625 18.097656 -6.390625 C 13.023438 -6.390625 11.289062 -8.125 10.753906 -10.632812 Z M 1.375 -10.632812 "/></g></g></g><g fill="#5ce1e6" fill-opacity="1"><g transform="translate(119.670576, 79.896199)"><g><path d="M 27.894531 -31.660156 L 17.023438 -31.660156 L 17.023438 -41.039062 L 11.410156 -41.039062 L 7.824219 -31.660156 L 1.195312 -31.660156 L 1.195312 -23.65625 L 7.527344 -23.65625 L 7.527344 -11.769531 C 7.527344 -3.164062 11.527344 0.777344 20.546875 0.777344 C 24.011719 0.777344 26.460938 0.359375 27.957031 0 L 27.957031 -7.945312 C 26.523438 -7.707031 24.609375 -7.40625 22.339844 -7.40625 C 18.21875 -7.40625 17.023438 -8.660156 17.023438 -13.082031 L 17.023438 -23.65625 L 27.894531 -23.65625 Z M 27.894531 -31.660156 "/></g></g></g><g fill="#5ce1e6" fill-opacity="1"><g transform="translate(149.896212, 79.896199)"><g><path d="M 35.242188 -17.742188 C 35.242188 -26.28125 29.089844 -32.4375 18.9375 -32.4375 C 8.242188 -32.4375 1.851562 -26.105469 1.851562 -16.425781 L 1.851562 -15.230469 C 1.851562 -5.554688 8.242188 0.777344 18.757812 0.777344 C 28.730469 0.777344 33.75 -4.539062 34.707031 -10.574219 L 24.789062 -10.574219 C 23.894531 -8.363281 22.28125 -6.75 18.277344 -6.75 C 14.21875 -6.75 11.707031 -8.78125 11.171875 -13.738281 L 35.003906 -13.738281 C 35.183594 -15.054688 35.242188 -16.070312 35.242188 -17.742188 Z M 18.695312 -25.148438 C 22.757812 -25.148438 25.207031 -23.238281 25.6875 -18.996094 L 11.230469 -18.996094 C 11.945312 -23.296875 14.515625 -25.148438 18.695312 -25.148438 Z M 18.695312 -25.148438 "/></g></g></g><g fill="#5ce1e6" fill-opacity="1"><g transform="translate(187.051038, 79.896199)"><g><path d="M 13.5 -43.605469 L 4.003906 -43.605469 L 4.003906 0 L 13.5 0 Z M 13.5 -43.605469 "/></g></g></g><g fill="#ff66c4" fill-opacity="1"><g transform="translate(204.542226, 79.896199)"><g><path d="M 1.136719 -20.488281 C 1.136719 -7.40625 9.558594 1.015625 23.59375 1.015625 C 37.15625 1.015625 44.921875 -6.390625 45.695312 -18.9375 L 30.164062 -18.9375 C 29.570312 -13.976562 27.417969 -11.945312 23.535156 -11.945312 C 19.292969 -11.945312 16.546875 -14.695312 16.546875 -20.789062 L 16.546875 -22.820312 C 16.546875 -28.910156 19.292969 -31.660156 23.535156 -31.660156 C 27.417969 -31.660156 29.570312 -29.628906 30.164062 -24.671875 L 45.695312 -24.671875 C 44.921875 -37.214844 37.15625 -44.621094 23.59375 -44.621094 C 9.558594 -44.621094 1.136719 -36.199219 1.136719 -23.117188 Z M 1.136719 -20.488281 "/></g></g></g><g fill="#ff66c4" fill-opacity="1"><g transform="translate(251.3143, 79.896199)"><g><path d="M 19.710938 -32.675781 C 7.707031 -32.675781 2.507812 -27.121094 1.792969 -20.371094 L 16.128906 -20.371094 C 16.425781 -21.683594 17.324219 -22.640625 19.59375 -22.640625 C 21.804688 -22.640625 22.820312 -21.804688 23.058594 -19.773438 L 18.695312 -19.113281 C 6.210938 -17.261719 1.253906 -13.976562 1.253906 -7.289062 C 1.253906 -2.507812 4.839844 1.015625 12.007812 1.015625 C 19.292969 1.015625 24.011719 -2.269531 25.6875 -8.421875 L 30.164062 0 L 37.273438 0 L 37.273438 -16.90625 C 37.273438 -27.238281 31.898438 -32.675781 19.710938 -32.675781 Z M 17.742188 -8.902344 C 16.308594 -8.902344 15.589844 -9.617188 15.589844 -10.511719 C 15.589844 -12.066406 17.503906 -13.023438 21.503906 -13.796875 L 23.296875 -14.15625 C 23.296875 -11.230469 20.90625 -8.902344 17.742188 -8.902344 Z M 17.742188 -8.902344 "/></g></g></g><g fill="#ff66c4" fill-opacity="1"><g transform="translate(290.679308, 79.896199)"><g><path d="M 39.960938 0 L 30.941406 -17.621094 L 39.722656 -31.660156 L 23.714844 -31.660156 L 16.605469 -19.234375 L 16.605469 -43.605469 L 2.6875 -43.605469 L 2.6875 0 L 16.605469 0 L 16.605469 -8.480469 L 18.816406 -11.886719 L 24.492188 0 Z M 39.960938 0 "/></g></g></g><g fill="#ff66c4" fill-opacity="1"><g transform="translate(330.163777, 79.896199)"><g><path d="M 38.230469 -17.859375 C 38.230469 -26.28125 31.839844 -32.675781 19.953125 -32.675781 C 7.707031 -32.675781 1.136719 -26.105469 1.136719 -16.605469 L 1.136719 -15.054688 C 1.136719 -5.554688 7.707031 1.015625 19.773438 1.015625 C 31.660156 1.015625 37.09375 -4.539062 37.8125 -11.289062 L 23.175781 -11.289062 C 22.640625 -9.976562 21.625 -9.140625 19.292969 -9.140625 C 16.964844 -9.140625 15.410156 -10.273438 14.992188 -13.679688 L 37.992188 -13.679688 C 38.171875 -14.992188 38.230469 -16.246094 38.230469 -17.859375 Z M 19.652344 -22.996094 C 22.101562 -22.996094 23.535156 -21.980469 23.894531 -19.175781 L 15.113281 -19.175781 C 15.710938 -22.042969 17.203125 -22.996094 19.652344 -22.996094 Z M 19.652344 -22.996094 "/></g></g></g></svg>